<?xml version="1.0" standalone="no"?>
<!DOCTYPE svg PUBLIC "-//W3C//DTD SVG 20010904//EN"
 "http://www.w3.org/TR/2001/REC-SVG-20010904/DTD/svg10.dtd">
<svg version="1.0" xmlns="http://www.w3.org/2000/svg"
 width="512.000000pt" height="512.000000pt" viewBox="0 0 512.000000 512.000000"
 preserveAspectRatio="xMidYMid meet">
<metadata>
Created by potrace 1.16, written by Peter Selinger 2001-2019
</metadata>
<g transform="translate(0.000000,512.000000) scale(0.100000,-0.100000)"
fill="#000000" stroke="none">
<path d="M1436 3599 c7 -12 152 -107 324 -211 121 -74 174 -113 240 -179 47
-47 117 -109 155 -139 318 -248 430 -345 462 -403 25 -44 16 -108 -22 -165
-20 -28 -37 -52 -38 -52 -1 0 0 25 1 55 4 53 2 57 -35 94 -82 82 -257 116
-548 108 -104 -3 -206 -10 -225 -15 l-35 -9 40 -7 c177 -33 320 -86 387 -144
19 -18 40 -32 46 -32 19 0 54 -74 59 -127 5 -44 2 -59 -22 -100 -35 -60 -203
-233 -270 -278 -27 -18 -65 -52 -84 -75 -29 -37 -3 -21 200 116 407 275 595
420 648 501 51 76 41 174 -24 251 l-28 33 29 -7 c16 -3 55 -20 87 -37 122 -64
195 -158 184 -238 -3 -22 -1 -37 4 -33 5 3 9 14 9 25 0 10 4 19 8 19 12 0 -2
100 -19 135 -8 16 -28 43 -45 60 -16 16 -19 21 -6 10 l23 -20 -5 28 c-3 15 -1
25 3 23 5 -3 19 6 32 21 13 14 18 23 12 19 -9 -5 -11 -2 -7 9 11 28 49 28 92
1 46 -29 88 -105 98 -178 6 -41 4 -46 -12 -45 -11 1 -18 -4 -16 -10 1 -7 -4
-13 -10 -13 -9 0 -8 -4 2 -10 13 -8 11 -11 -7 -16 -13 -4 -20 -10 -17 -15 3
-5 -7 -9 -21 -9 -15 0 -36 -11 -49 -25 -26 -28 -41 -33 -33 -10 4 8 3 16 -1
18 -8 4 -52 -40 -46 -46 9 -9 -154 -165 -236 -226 -145 -108 -380 -259 -765
-491 -495 -298 -645 -402 -645 -444 0 -21 34 -46 62 -46 109 0 674 244 981
424 l48 28 -22 -46 c-13 -25 -20 -48 -17 -51 3 -3 84 36 179 88 96 51 195 104
222 116 78 38 285 282 392 462 103 175 129 333 73 452 -34 73 -116 154 -230
231 -114 75 -428 226 -668 322 -200 79 -903 317 -894 303z"/>
<path d="M3218 3101 c18 -17 30 -31 26 -31 -3 0 22 -30 56 -67 139 -152 196
-324 159 -483 -27 -119 -120 -261 -293 -448 -89 -96 -116 -142 -82 -142 20 0
219 173 308 269 122 130 165 241 156 407 -6 104 -30 175 -90 265 -51 76 -157
184 -223 228 l-50 33 33 -31z"/>
<path d="M3637 2778 c31 -75 41 -210 24 -303 -12 -67 -63 -180 -112 -252 -18
-27 -25 -41 -15 -33 28 23 95 126 127 195 58 129 57 250 -6 383 -19 39 -36 72
-39 72 -2 0 7 -28 21 -62z"/>
<path d="M3405 1987 c-277 -145 -563 -354 -761 -558 -131 -136 -148 -169 -86
-169 70 1 363 152 542 280 204 147 327 277 434 463 25 42 26 47 9 47 -10 0
-72 -29 -138 -63z"/>
</g>
</svg>